<?xml version="1.0" encoding="UTF-8"?> <svg xmlns="http://www.w3.org/2000/svg" width="105" height="20" viewBox="0 0 105 20" fill="none"> <path d="M19.8086 8.66963C19.8086 8.66963 20.2996 3.05064 20.3495 2.5005C20.3641 2.18065 20.3147 1.86112 20.2043 1.56095C20.0938 1.26078 19.9247 0.986115 19.7068 0.753333C19.489 0.520551 19.2269 0.334414 18.9363 0.206015C18.6457 0.0776162 18.3324 0.00958469 18.0152 0.00597525H3.96325C3.31542 -0.0393419 2.67595 0.174466 2.18307 0.60118C1.69018 1.02789 1.38349 1.63323 1.32929 2.28633C1.26688 2.94566 0.105938 16.5312 0.0185559 17.3123C-0.0229538 17.6449 0.0053626 17.9827 0.101664 18.3036C0.197966 18.6244 0.360098 18.9213 0.57752 19.1748C0.794942 19.4283 1.06279 19.6328 1.36365 19.7749C1.6645 19.9171 1.99164 19.9938 2.32379 20H16.3091C18.1608 20 18.8807 19.0089 19.0388 17.4803C19.1345 16.569 19.5756 11.0382 19.5756 11.0382H11.1494L10.7832 15.3091H8.64445L9.56405 4.69686H11.7028L11.3658 8.66963H19.8086Z" fill="#02818A"></path> <path d="M32.8411 1.72359C32.5415 2.59709 30.0823 10.362 30.0823 10.362L31.1766 0.00597525H22.7338L20.9654 20H27.3277C28.9255 20 29.4748 19.0845 29.7411 18.3496C30.0573 17.4761 32.4 10.9248 32.4 10.9248L31.5387 20H39.9856L41.725 0.00597525H35.0964C34.5856 0.00204266 34.0878 0.168206 33.6801 0.478726C33.2723 0.789245 32.9775 1.22679 32.8411 1.72359Z" fill="#02818A"></path> <path d="M75.6252 0.00597525L74.8346 9.11898H72.6916L73.4822 0.00597525H65.0394C65.0394 0.00597525 64.228 9.66492 64.1406 10.5888C64.0408 11.7017 64.6649 13.2807 66.5374 13.2807H74.4726L74.2978 15.3049H63.7329L63.3167 19.9958H80.1233C81.2634 19.9958 82.362 19.2441 82.5118 17.6399C82.6158 16.6152 84.0722 0.00597525 84.0722 0.00597525H75.6252Z" fill="#02818A"></path> <path d="M86.1943 0.00597525L84.4633 19.9958H92.9103L93.4429 13.8099H101.649C103.101 13.8099 104.066 13.0624 104.22 11.3489C104.282 10.6854 104.948 3.10524 104.994 2.43751C105.094 0.959271 103.929 0.00597525 102.497 0.00597525H86.1943ZM93.8049 9.66492L94.221 4.70526H96.339L95.9229 9.66492H93.8049Z" fill="#02818A"></path> <path d="M51.7407 6.72524L51.9196 4.69686H62.497L62.9131 0.00597525H43.8762L42.1452 20H59.0017C60.0711 20 61.2321 19.3575 61.3819 17.6861C61.4942 16.4262 62.0143 10.488 62.11 9.40875C62.2349 7.96831 61.3319 6.72524 59.551 6.72524H51.7407ZM53.1055 15.8425H50.9501L51.3662 10.8828H53.5216L53.1055 15.8425Z" fill="#02818A"></path> </svg> 